<svg id="visual" viewBox="0 0 600 300" width="600" height="300" xmlns="http://www.w3.org/2000/svg" xmlns:xlink="http://www.w3.org/1999/xlink" version="1.1"><rect x="0" y="0" width="600" height="300" fill="#F0BA41"></rect><path d="M0 222L14.3 212.3C28.7 202.7 57.3 183.3 85.8 179.8C114.3 176.3 142.7 188.7 171.2 198.5C199.7 208.3 228.3 215.7 257 209.3C285.7 203 314.3 183 343 184.2C371.7 185.3 400.3 207.7 428.8 213C457.3 218.3 485.7 206.7 514.2 204C542.7 201.3 571.3 207.7 585.7 210.8L600 214L600 301L585.7 301C571.3 301 542.7 301 514.2 301C485.7 301 457.3 301 428.8 301C400.3 301 371.7 301 343 301C314.3 301 285.7 301 257 301C228.3 301 199.7 301 171.2 301C142.7 301 114.3 301 85.8 301C57.3 301 28.7 301 14.3 301L0 301Z" fill="#6A6AE2" stroke-linecap="round" stroke-linejoin="miter"></path></svg>