<svg id="visual" viewBox="0 0 1200 100" width="1200" height="100" xmlns="http://www.w3.org/2000/svg" xmlns:xlink="http://www.w3.org/1999/xlink" version="1.1"><rect x="0" y="0" width="1200" height="100" fill="#F0BA41"></rect><path d="M0 45L15.3 44.7C30.7 44.3 61.3 43.7 92.2 51.7C123 59.7 154 76.3 184.8 78C215.7 79.7 246.3 66.3 277 58.5C307.7 50.7 338.3 48.3 369.2 51.5C400 54.7 431 63.3 461.8 70.8C492.7 78.3 523.3 84.7 554 82.8C584.7 81 615.3 71 646 62.5C676.7 54 707.3 47 738.2 47C769 47 800 54 830.8 60.5C861.7 67 892.3 73 923 79.2C953.7 85.3 984.3 91.7 1015.2 88C1046 84.3 1077 70.7 1107.8 68.7C1138.7 66.7 1169.3 76.3 1184.7 81.2L1200 86L1200 101L1184.7 101C1169.3 101 1138.7 101 1107.8 101C1077 101 1046 101 1015.2 101C984.3 101 953.7 101 923 101C892.3 101 861.7 101 830.8 101C800 101 769 101 738.2 101C707.3 101 676.7 101 646 101C615.3 101 584.7 101 554 101C523.3 101 492.7 101 461.8 101C431 101 400 101 369.2 101C338.3 101 307.7 101 277 101C246.3 101 215.7 101 184.8 101C154 101 123 101 92.2 101C61.3 101 30.7 101 15.3 101L0 101Z" fill="#6A6AE2" stroke-linecap="round" stroke-linejoin="miter"></path></svg>